<?xml version="1.0" encoding="utf-8"?>
<!-- Generator: Adobe Illustrator 16.0.0, SVG Export Plug-In . SVG Version: 6.00 Build 0)  -->
<!DOCTYPE svg PUBLIC "-//W3C//DTD SVG 1.1//EN" "http://www.w3.org/Graphics/SVG/1.1/DTD/svg11.dtd">
<svg version="1.1" id="Layer_1" xmlns="http://www.w3.org/2000/svg" xmlns:xlink="http://www.w3.org/1999/xlink" x="0px" y="0px"
	 width="1216px" height="841px" viewBox="0 0 1216 841" enable-background="new 0 0 1216 841" xml:space="preserve">
<path d="M719.813,409.697l-1.3-1.957l-36.893,60.174c0.402-2.562,0.616-5.186,0.616-7.858c0-27.131-21.55-49.312-48.43-50.353
	v-99.432l-60.397,54.415l-58.883-53.896v98.184h-69.109c-34.054-4.792-32.984-34.932-32.92-36.288V-790.542h-3l0.002,1163.152
	c-0.018,0.341-1.31,34.219,35.608,39.35l72.419,0.014v-94.371l55.867,51.136l57.413-51.727v92.668
	c-27.317,0.551-49.374,22.929-49.374,50.376c0,27.792,22.61,50.402,50.402,50.402c21.417,0,39.745-13.435,47.031-32.314
	l39.748-64.831l692.805,1042.326l2.498-1.66L719.813,409.697z M631.835,507.459c-26.138,0-47.402-21.265-47.402-47.402
	s21.265-47.402,47.402-47.402c26.137,0,47.401,21.265,47.401,47.402S657.972,507.459,631.835,507.459z"/>
</svg>
