<?xml version="1.0" encoding="utf-8"?>
<!-- Generator: Adobe Illustrator 21.1.0, SVG Export Plug-In . SVG Version: 6.00 Build 0)  -->
<svg version="1.1" id="레이어_1" xmlns="http://www.w3.org/2000/svg" xmlns:xlink="http://www.w3.org/1999/xlink" x="0px"
	 y="0px" viewBox="0 0 1400 945" style="enable-background:new 0 0 1400 945;" xml:space="preserve">
<style type="text/css">
	.st0{fill:none;stroke:#000000;stroke-width:3.2;stroke-miterlimit:10;}
</style>
<path class="st0" d="M1400,180.3H471.2H252.2h-78.3c0,0-0.1,0-0.1,0c-28.9,0.4-52.4,24-52.4,53v91.9c0,0.3,0.2,0.2,0.2,0.2h132.9
	c0,0,0.2,0,0.1,0.2l0.1-0.1c0,0-71.6,78.8-71.7,78.9s0,0.2,0,0.2l71.7,79c0.1,0.1,0,0.2,0,0.2h-91.6"/>
<path class="st0" d="M-0.9,693.2l41.2-26.7l0,0l131.4-85.1c0.2-0.1,0-0.2,0-0.2l-89.1-54.7"/>
<path class="st0" d="M111.5,535.4c-28.5,0-51.6-23.2-51.6-51.6c0-28.5,23.2-51.6,51.6-51.6c28.5,0,51.6,23.2,51.6,51.6
	C163.1,512.3,139.9,535.4,111.5,535.4z"/>
</svg>
