<?xml version="1.0" encoding="utf-8"?>
<!-- Generator: Adobe Illustrator 16.0.0, SVG Export Plug-In . SVG Version: 6.00 Build 0)  -->
<!DOCTYPE svg PUBLIC "-//W3C//DTD SVG 1.1//EN" "http://www.w3.org/Graphics/SVG/1.1/DTD/svg11.dtd">
<svg version="1.1" xmlns="http://www.w3.org/2000/svg" xmlns:xlink="http://www.w3.org/1999/xlink" x="0px" y="0px" width="1920px"
	 height="945px" viewBox="0 0 1920 945" enable-background="new 0 0 1920 945" xml:space="preserve">
<g id="Layer_1" display="none">
	<path display="inline" fill="#F92C0B" d="M470.625,178.613H251.144H172.69c-0.041,0-0.08,0-0.12,0.004
		c-28.989,0.365-52.46,24.057-52.46,53.128v93.68c0,0.888,0.717,1.604,1.603,1.604h129.431l-69.416,76.497
		c-0.553,0.613-0.553,1.547,0,2.16l69.416,76.485h-86.376c-0.863-28.656-24.436-51.704-53.296-51.704
		c-29.415,0-53.339,23.919-53.339,53.323c0,20.024,11.092,37.497,27.452,46.616c0.054,0.045,0.089,0.1,0.145,0.137l83.058,50.819
		L-3.252,692.807c-0.744,0.482-0.954,1.476-0.472,2.22c0.308,0.476,0.821,0.733,1.348,0.733c0.301-0.002,0.606-0.082,0.875-0.26
		l44.052-28.515l-0.011-0.017l130.129-84.301c0.462-0.299,0.741-0.815,0.732-1.367c-0.009-0.551-0.296-1.062-0.772-1.349
		l-71.692-43.867c3.408,0.685,6.931,1.05,10.534,1.05c28.876,0,52.451-23.077,53.296-51.757h90c0.637,0,1.212-0.372,1.469-0.954
		c0.256-0.581,0.146-1.258-0.279-1.728l-70.872-78.09l70.872-78.103c0.425-0.47,0.535-1.146,0.279-1.729
		c-0.257-0.58-0.833-0.953-1.469-0.953H123.322v-92.076c0-27.526,22.397-49.923,49.93-49.923h77.892h219.481H1920v-3.209H470.625z
		 M111.472,533.921c-27.64,0-50.127-22.485-50.127-50.131c0-27.631,22.487-50.115,50.127-50.115
		c27.64,0,50.123,22.484,50.123,50.115C161.594,511.436,139.111,533.921,111.472,533.921z"/>
</g>
<g id="Layer_2">
	<path fill="none" stroke="#000000" stroke-width="3.2" stroke-miterlimit="10" d="M1920,180.272H471.226H252.175h-78.299
		c-0.041,0-0.08,0-0.12,0.004c-28.932,0.365-52.357,24.009-52.357,53.023v91.903c0,0.297,0.242,0.213,0.242,0.213h132.922
		c0,0,0.209,0.042,0.068,0.198l0.053-0.063c0,0-71.566,78.801-71.684,78.918s0,0.219,0,0.219l71.656,78.969
		c0.139,0.139,0.031,0.154,0.031,0.154h-91.594 M121.399,325.203 M-0.939,693.233l41.222-26.683l-0.011-0.017l131.416-85.065
		c0.153-0.1,0.023-0.168,0.023-0.168l-89.059-54.692 M58.133,483.79 M111.472,535.421c-28.467,0-51.627-23.158-51.627-51.631
		c0-28.458,23.16-51.614,51.627-51.614c28.466,0,51.622,23.157,51.622,51.614C163.094,512.263,139.938,535.421,111.472,535.421z"/>
</g>
</svg>
